<mxfile host="app.diagrams.net" modified="2023-09-20T03:05:54.956Z" agent="Mozilla/5.0 (Macintosh; Intel Mac OS X 10_15_7) AppleWebKit/537.36 (KHTML, like Gecko) Chrome/116.0.0.0 Safari/537.36" version="21.6.9" etag="MApwJFOZ18HqKixQMv8i" type="github">
  <diagram name="第 1 页" id="y6Zrgh31zRWrqijRTQdM">
    <mxGraphModel>
      <root>
        <mxCell id="0" />
        <mxCell id="1" parent="0" />
      </root>
    </mxGraphModel>
  </diagram>
</mxfile>
